<?xml version="1.0" encoding="UTF-8" standalone="no"?>
<!-- Created with Inkscape (http://www.inkscape.org/) -->

<svg
   xmlns:dc="http://purl.org/dc/elements/1.1/"
   xmlns:cc="http://creativecommons.org/ns#"
   xmlns:rdf="http://www.w3.org/1999/02/22-rdf-syntax-ns#"
   xmlns:svg="http://www.w3.org/2000/svg"
   xmlns="http://www.w3.org/2000/svg"
   xmlns:xlink="http://www.w3.org/1999/xlink"
   xmlns:sodipodi="http://sodipodi.sourceforge.net/DTD/sodipodi-0.dtd"
   xmlns:inkscape="http://www.inkscape.org/namespaces/inkscape"
   id="svg3090"
   version="1.1"
   inkscape:version="0.48.3.1 r9886"
   width="744.09448"
   height="1052.3622"
   sodipodi:docname="swknightsLogo.svg"
   inkscape:export-filename="/home/dave/swknightsLogo.png"
   inkscape:export-xdpi="90"
   inkscape:export-ydpi="90">
  <metadata
     id="metadata3096">
    <rdf:RDF>
      <cc:Work
         rdf:about="">
        <dc:format>image/svg+xml</dc:format>
        <dc:type
           rdf:resource="http://purl.org/dc/dcmitype/StillImage" />
        <dc:title></dc:title>
      </cc:Work>
    </rdf:RDF>
  </metadata>
  <defs
     id="defs3094">
    <filter
       id="filter6559"
       inkscape:label="Bloom"
       inkscape:menu="Bevels"
       inkscape:menu-tooltip="Soft, cushion-like bevel with matte highlights"
       height="1"
       width="1"
       y="0"
       x="0"
       color-interpolation-filters="sRGB">
      <feGaussianBlur
         id="feGaussianBlur6561"
         result="result6"
         stdDeviation="0.4" />
      <feComposite
         id="feComposite6563"
         in2="result6"
         operator="in"
         in="SourceGraphic"
         result="result7" />
      <feComposite
         id="feComposite6565"
         in2="result7"
         operator="in"
         result="fbSourceGraphic"
         in="result7" />
      <feColorMatrix
         result="fbSourceGraphicAlpha"
         in="fbSourceGraphic"
         values="0 0 0 -1 0 0 0 0 -1 0 0 0 0 -1 0 0 0 0 1 0"
         id="feColorMatrix15705" />
      <feGaussianBlur
         id="feGaussianBlur15707"
         stdDeviation="4"
         result="result8"
         in="fbSourceGraphic" />
      <feOffset
         id="feOffset15709"
         dx="4"
         dy="4"
         result="result11" />
      <feComposite
         in2="result11"
         id="feComposite15711"
         result="result6"
         in="fbSourceGraphic"
         operator="in" />
      <feFlood
         id="feFlood15713"
         result="result10"
         in="result6"
         flood-opacity="1"
         flood-color="rgb(0,0,0)" />
      <feBlend
         in2="result10"
         id="feBlend15715"
         mode="normal"
         in="result6"
         result="result12" />
      <feComposite
         in2="fbSourceGraphic"
         id="feComposite15717"
         result="fbSourceGraphic"
         operator="in" />
      <feColorMatrix
         result="fbSourceGraphicAlpha"
         in="fbSourceGraphic"
         values="0 0 0 -1 0 0 0 0 -1 0 0 0 0 -1 0 0 0 0 1 0"
         id="feColorMatrix18841" />
      <feConvolveMatrix
         id="feConvolveMatrix18843"
         targetY="1"
         targetX="1"
         in="fbSourceGraphic"
         divisor="1"
         kernelMatrix="0 -0.3 0 -0.3 2.2 -0.3 0 -0.3 0"
         order="3 3"
         result="result1" />
      <feBlend
         in2="fbSourceGraphic"
         id="feBlend18845"
         mode="normal"
         result="fbSourceGraphic" />
      <feColorMatrix
         result="fbSourceGraphicAlpha"
         in="fbSourceGraphic"
         values="0 0 0 -1 0 0 0 0 -1 0 0 0 0 -1 0 0 0 0 1 0"
         id="feColorMatrix61737" />
      <feGaussianBlur
         id="feGaussianBlur61739"
         result="result1"
         in="fbSourceGraphicAlpha"
         stdDeviation="2.2" />
      <feSpecularLighting
         id="feSpecularLighting61741"
         result="result0"
         specularExponent="18.10000038"
         specularConstant="2"
         surfaceScale="5">
        <feDistantLight
           id="feDistantLight61743"
           azimuth="225"
           elevation="24" />
      </feSpecularLighting>
      <feComposite
         id="feComposite61745"
         in2="fbSourceGraphicAlpha"
         result="result6"
         operator="in" />
      <feMorphology
         id="feMorphology61747"
         radius="5.7"
         operator="dilate" />
      <feGaussianBlur
         id="feGaussianBlur61749"
         result="result11"
         stdDeviation="5.7" />
      <feDiffuseLighting
         id="feDiffuseLighting61751"
         surfaceScale="5"
         result="result3"
         diffuseConstant="2"
         in="result1">
        <feDistantLight
           id="feDistantLight61753"
           elevation="25"
           azimuth="225" />
      </feDiffuseLighting>
      <feBlend
         id="feBlend61755"
         in2="fbSourceGraphic"
         result="result7"
         mode="multiply"
         in="result3" />
      <feComposite
         id="feComposite61757"
         in2="fbSourceGraphicAlpha"
         in="result7"
         operator="in"
         result="result91" />
      <feBlend
         id="feBlend61759"
         in2="result91"
         result="result9"
         mode="lighten"
         in="result6" />
      <feComposite
         id="feComposite61761"
         in2="result9"
         in="result11" />
    </filter>
    <filter
       id="filter6567"
       inkscape:label="Bloom"
       inkscape:menu="Bevels"
       inkscape:menu-tooltip="Soft, cushion-like bevel with matte highlights"
       height="1"
       width="1"
       y="0"
       x="0"
       color-interpolation-filters="sRGB">
      <feGaussianBlur
         id="feGaussianBlur6569"
         result="result6"
         stdDeviation="0.4" />
      <feComposite
         id="feComposite6571"
         in2="result6"
         operator="in"
         in="SourceGraphic"
         result="result7" />
      <feComposite
         id="feComposite6573"
         in2="result7"
         operator="in"
         result="fbSourceGraphic"
         in="result7" />
      <feColorMatrix
         result="fbSourceGraphicAlpha"
         in="fbSourceGraphic"
         values="0 0 0 -1 0 0 0 0 -1 0 0 0 0 -1 0 0 0 0 1 0"
         id="feColorMatrix15719" />
      <feGaussianBlur
         id="feGaussianBlur15721"
         stdDeviation="4"
         result="result8"
         in="fbSourceGraphic" />
      <feOffset
         id="feOffset15723"
         dx="4"
         dy="4"
         result="result11" />
      <feComposite
         in2="result11"
         id="feComposite15725"
         result="result6"
         in="fbSourceGraphic"
         operator="in" />
      <feFlood
         id="feFlood15727"
         result="result10"
         in="result6"
         flood-opacity="1"
         flood-color="rgb(0,0,0)" />
      <feBlend
         in2="result10"
         id="feBlend15729"
         mode="normal"
         in="result6"
         result="result12" />
      <feComposite
         in2="fbSourceGraphic"
         id="feComposite15731"
         result="fbSourceGraphic"
         operator="in" />
      <feColorMatrix
         result="fbSourceGraphicAlpha"
         in="fbSourceGraphic"
         values="0 0 0 -1 0 0 0 0 -1 0 0 0 0 -1 0 0 0 0 1 0"
         id="feColorMatrix18847" />
      <feConvolveMatrix
         id="feConvolveMatrix18849"
         targetY="1"
         targetX="1"
         in="fbSourceGraphic"
         divisor="1"
         kernelMatrix="0 -0.3 0 -0.3 2.2 -0.3 0 -0.3 0"
         order="3 3"
         result="result1" />
      <feBlend
         in2="fbSourceGraphic"
         id="feBlend18851"
         mode="normal"
         result="fbSourceGraphic" />
      <feColorMatrix
         result="fbSourceGraphicAlpha"
         in="fbSourceGraphic"
         values="0 0 0 -1 0 0 0 0 -1 0 0 0 0 -1 0 0 0 0 1 0"
         id="feColorMatrix61763" />
      <feGaussianBlur
         id="feGaussianBlur61765"
         result="result1"
         in="fbSourceGraphicAlpha"
         stdDeviation="2.2" />
      <feSpecularLighting
         id="feSpecularLighting61767"
         result="result0"
         specularExponent="18.10000038"
         specularConstant="2"
         surfaceScale="5">
        <feDistantLight
           id="feDistantLight61769"
           azimuth="225"
           elevation="24" />
      </feSpecularLighting>
      <feComposite
         id="feComposite61771"
         in2="fbSourceGraphicAlpha"
         result="result6"
         operator="in" />
      <feMorphology
         id="feMorphology61773"
         radius="5.7"
         operator="dilate" />
      <feGaussianBlur
         id="feGaussianBlur61775"
         result="result11"
         stdDeviation="5.7" />
      <feDiffuseLighting
         id="feDiffuseLighting61777"
         surfaceScale="5"
         result="result3"
         diffuseConstant="2"
         in="result1">
        <feDistantLight
           id="feDistantLight61779"
           elevation="25"
           azimuth="225" />
      </feDiffuseLighting>
      <feBlend
         id="feBlend61781"
         in2="fbSourceGraphic"
         result="result7"
         mode="multiply"
         in="result3" />
      <feComposite
         id="feComposite61783"
         in2="fbSourceGraphicAlpha"
         in="result7"
         operator="in"
         result="result91" />
      <feBlend
         id="feBlend61785"
         in2="result91"
         result="result9"
         mode="lighten"
         in="result6" />
      <feComposite
         id="feComposite61787"
         in2="result9"
         in="result11" />
    </filter>
    <filter
       id="filter6583"
       inkscape:label="Bloom"
       inkscape:menu="Bevels"
       inkscape:menu-tooltip="Soft, cushion-like bevel with matte highlights"
       height="1"
       width="1"
       y="0"
       x="0"
       color-interpolation-filters="sRGB">
      <feGaussianBlur
         id="feGaussianBlur6585"
         result="result6"
         stdDeviation="0.4" />
      <feComposite
         id="feComposite6587"
         in2="result6"
         operator="in"
         in="SourceGraphic"
         result="result7" />
      <feComposite
         id="feComposite6589"
         in2="result7"
         operator="in"
         result="fbSourceGraphic"
         in="result7" />
      <feColorMatrix
         result="fbSourceGraphicAlpha"
         in="fbSourceGraphic"
         values="0 0 0 -1 0 0 0 0 -1 0 0 0 0 -1 0 0 0 0 1 0"
         id="feColorMatrix15775" />
      <feGaussianBlur
         id="feGaussianBlur15777"
         stdDeviation="4"
         result="result8"
         in="fbSourceGraphic" />
      <feOffset
         id="feOffset15779"
         dx="4"
         dy="4"
         result="result11" />
      <feComposite
         in2="result11"
         id="feComposite15781"
         result="result6"
         in="fbSourceGraphic"
         operator="in" />
      <feFlood
         id="feFlood15783"
         result="result10"
         in="result6"
         flood-opacity="1"
         flood-color="rgb(0,0,0)" />
      <feBlend
         in2="result10"
         id="feBlend15785"
         mode="normal"
         in="result6"
         result="result12" />
      <feComposite
         in2="fbSourceGraphic"
         id="feComposite15787"
         result="fbSourceGraphic"
         operator="in" />
      <feColorMatrix
         result="fbSourceGraphicAlpha"
         in="fbSourceGraphic"
         values="0 0 0 -1 0 0 0 0 -1 0 0 0 0 -1 0 0 0 0 1 0"
         id="feColorMatrix18871" />
      <feConvolveMatrix
         id="feConvolveMatrix18873"
         targetY="1"
         targetX="1"
         in="fbSourceGraphic"
         divisor="1"
         kernelMatrix="0 -0.3 0 -0.3 2.2 -0.3 0 -0.3 0"
         order="3 3"
         result="result1" />
      <feBlend
         in2="fbSourceGraphic"
         id="feBlend18875"
         mode="normal"
         result="fbSourceGraphic" />
      <feColorMatrix
         result="fbSourceGraphicAlpha"
         in="fbSourceGraphic"
         values="0 0 0 -1 0 0 0 0 -1 0 0 0 0 -1 0 0 0 0 1 0"
         id="feColorMatrix61841" />
      <feGaussianBlur
         id="feGaussianBlur61843"
         result="result1"
         in="fbSourceGraphicAlpha"
         stdDeviation="2.2" />
      <feSpecularLighting
         id="feSpecularLighting61845"
         result="result0"
         specularExponent="18.10000038"
         specularConstant="2"
         surfaceScale="5">
        <feDistantLight
           id="feDistantLight61847"
           azimuth="225"
           elevation="24" />
      </feSpecularLighting>
      <feComposite
         id="feComposite61849"
         in2="fbSourceGraphicAlpha"
         result="result6"
         operator="in" />
      <feMorphology
         id="feMorphology61851"
         radius="5.7"
         operator="dilate" />
      <feGaussianBlur
         id="feGaussianBlur61853"
         result="result11"
         stdDeviation="5.7" />
      <feDiffuseLighting
         id="feDiffuseLighting61855"
         surfaceScale="5"
         result="result3"
         diffuseConstant="2"
         in="result1">
        <feDistantLight
           id="feDistantLight61857"
           elevation="25"
           azimuth="225" />
      </feDiffuseLighting>
      <feBlend
         id="feBlend61859"
         in2="fbSourceGraphic"
         result="result7"
         mode="multiply"
         in="result3" />
      <feComposite
         id="feComposite61861"
         in2="fbSourceGraphicAlpha"
         in="result7"
         operator="in"
         result="result91" />
      <feBlend
         id="feBlend61863"
         in2="result91"
         result="result9"
         mode="lighten"
         in="result6" />
      <feComposite
         id="feComposite61865"
         in2="result9"
         in="result11" />
    </filter>
    <filter
       id="filter10369"
       inkscape:label="Bloom"
       inkscape:menu="Bevels"
       inkscape:menu-tooltip="Soft, cushion-like bevel with matte highlights"
       height="1"
       width="1"
       y="0"
       x="0"
       color-interpolation-filters="sRGB">
      <feGaussianBlur
         id="feGaussianBlur10371"
         result="result6"
         stdDeviation="0.4" />
      <feComposite
         id="feComposite10373"
         in2="result6"
         operator="in"
         in="SourceGraphic"
         result="result7" />
      <feComposite
         id="feComposite10375"
         in2="result7"
         operator="in"
         result="fbSourceGraphic"
         in="result7" />
      <feColorMatrix
         result="fbSourceGraphicAlpha"
         in="fbSourceGraphic"
         values="0 0 0 -1 0 0 0 0 -1 0 0 0 0 -1 0 0 0 0 1 0"
         id="feColorMatrix13087" />
      <feGaussianBlur
         id="feGaussianBlur13089"
         stdDeviation="4"
         result="result8"
         in="fbSourceGraphic" />
      <feOffset
         id="feOffset13091"
         dx="4"
         dy="4"
         result="result11" />
      <feComposite
         in2="result11"
         id="feComposite13093"
         result="result6"
         in="fbSourceGraphic"
         operator="in" />
      <feFlood
         id="feFlood13095"
         result="result10"
         in="result6"
         flood-opacity="1"
         flood-color="rgb(0,0,0)" />
      <feBlend
         in2="result10"
         id="feBlend13097"
         mode="normal"
         in="result6"
         result="result12" />
      <feComposite
         in2="fbSourceGraphic"
         id="feComposite13099"
         result="fbSourceGraphic"
         operator="in" />
      <feColorMatrix
         result="fbSourceGraphicAlpha"
         in="fbSourceGraphic"
         values="0 0 0 -1 0 0 0 0 -1 0 0 0 0 -1 0 0 0 0 1 0"
         id="feColorMatrix17719" />
      <feConvolveMatrix
         id="feConvolveMatrix17721"
         targetY="1"
         targetX="1"
         in="fbSourceGraphic"
         divisor="1"
         kernelMatrix="0 -0.3 0 -0.3 2.2 -0.3 0 -0.3 0"
         order="3 3"
         result="result1" />
      <feBlend
         in2="fbSourceGraphic"
         id="feBlend17723"
         mode="normal"
         result="fbSourceGraphic" />
      <feColorMatrix
         result="fbSourceGraphicAlpha"
         in="fbSourceGraphic"
         values="0 0 0 -1 0 0 0 0 -1 0 0 0 0 -1 0 0 0 0 1 0"
         id="feColorMatrix61711" />
      <feGaussianBlur
         id="feGaussianBlur61713"
         result="result1"
         in="fbSourceGraphicAlpha"
         stdDeviation="2.2" />
      <feSpecularLighting
         id="feSpecularLighting61715"
         result="result0"
         specularExponent="18.10000038"
         specularConstant="2"
         surfaceScale="5">
        <feDistantLight
           id="feDistantLight61717"
           azimuth="225"
           elevation="24" />
      </feSpecularLighting>
      <feComposite
         id="feComposite61719"
         in2="fbSourceGraphicAlpha"
         result="result6"
         operator="in" />
      <feMorphology
         id="feMorphology61721"
         radius="5.7"
         operator="dilate" />
      <feGaussianBlur
         id="feGaussianBlur61723"
         result="result11"
         stdDeviation="5.7" />
      <feDiffuseLighting
         id="feDiffuseLighting61725"
         surfaceScale="5"
         result="result3"
         diffuseConstant="2"
         in="result1">
        <feDistantLight
           id="feDistantLight61727"
           elevation="25"
           azimuth="225" />
      </feDiffuseLighting>
      <feBlend
         id="feBlend61729"
         in2="fbSourceGraphic"
         result="result7"
         mode="multiply"
         in="result3" />
      <feComposite
         id="feComposite61731"
         in2="fbSourceGraphicAlpha"
         in="result7"
         operator="in"
         result="result91" />
      <feBlend
         id="feBlend61733"
         in2="result91"
         result="result9"
         mode="lighten"
         in="result6" />
      <feComposite
         id="feComposite61735"
         in2="result9"
         in="result11" />
    </filter>
    <filter
       id="filter15733"
       inkscape:label="Bloom"
       inkscape:menu="Bevels"
       inkscape:menu-tooltip="Soft, cushion-like bevel with matte highlights"
       color-interpolation-filters="sRGB"
       x="0"
       y="0"
       width="1"
       height="1">
      <feGaussianBlur
         id="feGaussianBlur15735"
         stdDeviation="4"
         result="result8" />
      <feOffset
         id="feOffset15737"
         dx="4"
         dy="4"
         result="result11" />
      <feComposite
         in2="result11"
         id="feComposite15739"
         result="result6"
         in="SourceGraphic"
         operator="in" />
      <feFlood
         id="feFlood15741"
         result="result10"
         in="result6"
         flood-opacity="1"
         flood-color="rgb(0,0,0)" />
      <feBlend
         in2="result10"
         id="feBlend15743"
         mode="normal"
         in="result6"
         result="result12" />
      <feComposite
         in2="SourceGraphic"
         id="feComposite15745"
         result="fbSourceGraphic"
         operator="in" />
      <feColorMatrix
         result="fbSourceGraphicAlpha"
         in="fbSourceGraphic"
         values="0 0 0 -1 0 0 0 0 -1 0 0 0 0 -1 0 0 0 0 1 0"
         id="feColorMatrix18853" />
      <feConvolveMatrix
         id="feConvolveMatrix18855"
         targetY="1"
         targetX="1"
         in="fbSourceGraphic"
         divisor="1"
         kernelMatrix="0 -0.3 0 -0.3 2.2 -0.3 0 -0.3 0"
         order="3 3"
         result="result1" />
      <feBlend
         in2="fbSourceGraphic"
         id="feBlend18857"
         mode="normal"
         result="fbSourceGraphic" />
      <feColorMatrix
         result="fbSourceGraphicAlpha"
         in="fbSourceGraphic"
         values="0 0 0 -1 0 0 0 0 -1 0 0 0 0 -1 0 0 0 0 1 0"
         id="feColorMatrix61789" />
      <feGaussianBlur
         id="feGaussianBlur61791"
         result="result1"
         in="fbSourceGraphicAlpha"
         stdDeviation="2.2" />
      <feSpecularLighting
         id="feSpecularLighting61793"
         result="result0"
         specularExponent="18.10000038"
         specularConstant="2"
         surfaceScale="5">
        <feDistantLight
           id="feDistantLight61795"
           azimuth="225"
           elevation="24" />
      </feSpecularLighting>
      <feComposite
         id="feComposite61797"
         in2="fbSourceGraphicAlpha"
         result="result6"
         operator="in" />
      <feMorphology
         id="feMorphology61799"
         radius="5.7"
         operator="dilate" />
      <feGaussianBlur
         id="feGaussianBlur61801"
         result="result11"
         stdDeviation="5.7" />
      <feDiffuseLighting
         id="feDiffuseLighting61803"
         surfaceScale="5"
         result="result3"
         diffuseConstant="2"
         in="result1">
        <feDistantLight
           id="feDistantLight61805"
           elevation="25"
           azimuth="225" />
      </feDiffuseLighting>
      <feBlend
         id="feBlend61807"
         in2="fbSourceGraphic"
         result="result7"
         mode="multiply"
         in="result3" />
      <feComposite
         id="feComposite61809"
         in2="fbSourceGraphicAlpha"
         in="result7"
         operator="in"
         result="result91" />
      <feBlend
         id="feBlend61811"
         in2="result91"
         result="result9"
         mode="lighten"
         in="result6" />
      <feComposite
         id="feComposite61813"
         in2="result9"
         in="result11" />
    </filter>
    <filter
       id="filter15747"
       inkscape:label="Bloom"
       inkscape:menu="Bevels"
       inkscape:menu-tooltip="Soft, cushion-like bevel with matte highlights"
       color-interpolation-filters="sRGB"
       x="0"
       y="0"
       width="1"
       height="1">
      <feGaussianBlur
         id="feGaussianBlur15749"
         stdDeviation="4"
         result="result8" />
      <feOffset
         id="feOffset15751"
         dx="4"
         dy="4"
         result="result11" />
      <feComposite
         in2="result11"
         id="feComposite15753"
         result="result6"
         in="SourceGraphic"
         operator="in" />
      <feFlood
         id="feFlood15755"
         result="result10"
         in="result6"
         flood-opacity="1"
         flood-color="rgb(0,0,0)" />
      <feBlend
         in2="result10"
         id="feBlend15757"
         mode="normal"
         in="result6"
         result="result12" />
      <feComposite
         in2="SourceGraphic"
         id="feComposite15759"
         result="fbSourceGraphic"
         operator="in" />
      <feColorMatrix
         result="fbSourceGraphicAlpha"
         in="fbSourceGraphic"
         values="0 0 0 -1 0 0 0 0 -1 0 0 0 0 -1 0 0 0 0 1 0"
         id="feColorMatrix18859" />
      <feConvolveMatrix
         id="feConvolveMatrix18861"
         targetY="1"
         targetX="1"
         in="fbSourceGraphic"
         divisor="1"
         kernelMatrix="0 -0.3 0 -0.3 2.2 -0.3 0 -0.3 0"
         order="3 3"
         result="result1" />
      <feBlend
         in2="fbSourceGraphic"
         id="feBlend18863"
         mode="normal"
         result="fbSourceGraphic" />
      <feColorMatrix
         result="fbSourceGraphicAlpha"
         in="fbSourceGraphic"
         values="0 0 0 -1 0 0 0 0 -1 0 0 0 0 -1 0 0 0 0 1 0"
         id="feColorMatrix61815" />
      <feGaussianBlur
         id="feGaussianBlur61817"
         result="result1"
         in="fbSourceGraphicAlpha"
         stdDeviation="2.2" />
      <feSpecularLighting
         id="feSpecularLighting61819"
         result="result0"
         specularExponent="18.10000038"
         specularConstant="2"
         surfaceScale="5">
        <feDistantLight
           id="feDistantLight61821"
           azimuth="225"
           elevation="24" />
      </feSpecularLighting>
      <feComposite
         id="feComposite61823"
         in2="fbSourceGraphicAlpha"
         result="result6"
         operator="in" />
      <feMorphology
         id="feMorphology61825"
         radius="5.7"
         operator="dilate" />
      <feGaussianBlur
         id="feGaussianBlur61827"
         result="result11"
         stdDeviation="5.7" />
      <feDiffuseLighting
         id="feDiffuseLighting61829"
         surfaceScale="5"
         result="result3"
         diffuseConstant="2"
         in="result1">
        <feDistantLight
           id="feDistantLight61831"
           elevation="25"
           azimuth="225" />
      </feDiffuseLighting>
      <feBlend
         id="feBlend61833"
         in2="fbSourceGraphic"
         result="result7"
         mode="multiply"
         in="result3" />
      <feComposite
         id="feComposite61835"
         in2="fbSourceGraphicAlpha"
         in="result7"
         operator="in"
         result="result91" />
      <feBlend
         id="feBlend61837"
         in2="result91"
         result="result9"
         mode="lighten"
         in="result6" />
      <feComposite
         id="feComposite61839"
         in2="result9"
         in="result11" />
    </filter>
    <filter
       id="filter6165"
       inkscape:label="Clouds"
       x="0"
       y="0"
       width="1"
       height="1"
       inkscape:menu="Overlays"
       inkscape:menu-tooltip="Airy, fluffy, sparse white clouds"
       color-interpolation-filters="sRGB">
      <feColorMatrix
         id="feColorMatrix6167"
         type="saturate"
         in="SourceGraphic"
         values="0" />
      <feColorMatrix
         id="feColorMatrix6169"
         values="3 0 0 0 -0.3 0 3 0 0 -0.3 0 0 3 0 -0.3 0 0 0 1 0"
         result="result0" />
      <feTurbulence
         id="feTurbulence6171"
         baseFrequency="0.111"
         numOctaves="2"
         type="fractalNoise" />
      <feColorMatrix
         id="feColorMatrix6173"
         values="0 0 0 0 0 0 0 0 0 0 0 0 0 0 0 0 0 0 255 -200" />
      <feGaussianBlur
         id="feGaussianBlur6175"
         stdDeviation="1"
         result="result1" />
      <feComposite
         id="feComposite6177"
         in2="result0"
         operator="atop"
         result="fbSourceGraphic" />
      <feColorMatrix
         result="fbSourceGraphicAlpha"
         in="fbSourceGraphic"
         values="0 0 0 -1 0 0 0 0 -1 0 0 0 0 -1 0 0 0 0 1 0"
         id="feColorMatrix6193" />
      <feColorMatrix
         id="feColorMatrix6195"
         type="saturate"
         in="fbSourceGraphic"
         values="0" />
      <feColorMatrix
         id="feColorMatrix6197"
         values="3 0 0 0 -0.3 0 3 0 0 -0.3 0 0 3 0 -0.3 0 0 0 1 0"
         result="result0" />
      <feTurbulence
         id="feTurbulence6199"
         baseFrequency="0.111"
         numOctaves="2"
         type="fractalNoise" />
      <feColorMatrix
         id="feColorMatrix6201"
         values="0 0 0 0 0 0 0 0 0 0 0 0 0 0 0 0 0 0 255 -200" />
      <feGaussianBlur
         id="feGaussianBlur6203"
         stdDeviation="1"
         result="result2" />
      <feComposite
         id="feComposite6205"
         in2="result0"
         operator="atop"
         result="fbSourceGraphic" />
      <feColorMatrix
         result="fbSourceGraphicAlpha"
         in="fbSourceGraphic"
         values="0 0 0 -1 0 0 0 0 -1 0 0 0 0 -1 0 0 0 0 1 0"
         id="feColorMatrix6221" />
      <feGaussianBlur
         id="feGaussianBlur6223"
         stdDeviation="2.3"
         in="fbSourceGraphicAlpha"
         result="result0" />
      <feMorphology
         id="feMorphology6225"
         in="fbSourceGraphicAlpha"
         radius="6.6"
         result="result1" />
      <feGaussianBlur
         id="feGaussianBlur6227"
         stdDeviation="8.9"
         in="result1" />
      <feColorMatrix
         id="feColorMatrix6229"
         values="1 0 0 0 0 0 1 0 0 0 0 0 1 0 0 0 0 0 0.3 0"
         result="result91" />
      <feComposite
         id="feComposite6231"
         in2="result91"
         in="result0"
         operator="out"
         result="result2" />
      <feGaussianBlur
         id="feGaussianBlur6233"
         stdDeviation="1.7"
         result="result4" />
      <feDiffuseLighting
         id="feDiffuseLighting6235"
         surfaceScale="10"
         result="result92">
        <feDistantLight
           id="feDistantLight6237"
           azimuth="225"
           elevation="45" />
      </feDiffuseLighting>
      <feBlend
         id="feBlend6239"
         in2="fbSourceGraphic"
         mode="multiply"
         result="result93" />
      <feComposite
         id="feComposite6241"
         in2="fbSourceGraphicAlpha"
         operator="in"
         result="result3" />
      <feSpecularLighting
         id="feSpecularLighting6243"
         in="result4"
         surfaceScale="5"
         specularExponent="17.89999962"
         result="result94">
        <feDistantLight
           id="feDistantLight6245"
           azimuth="225"
           elevation="45" />
      </feSpecularLighting>
      <feComposite
         id="feComposite6247"
         in2="result3"
         operator="atop"
         result="fbSourceGraphic" />
      <feColorMatrix
         result="fbSourceGraphicAlpha"
         in="fbSourceGraphic"
         values="0 0 0 -1 0 0 0 0 -1 0 0 0 0 -1 0 0 0 0 1 0"
         id="feColorMatrix6353" />
      <feTurbulence
         id="feTurbulence6355"
         numOctaves="3"
         baseFrequency="0.040 0.107"
         type="fractalNoise" />
      <feColorMatrix
         id="feColorMatrix6357"
         result="result0"
         values="1 0 0 0 0 0 1 0 0 0 0 0 1 0 0 0 0 0 5 -2.7" />
      <feFlood
         id="feFlood6359"
         flood-opacity="1"
         flood-color="rgb(255,255,255)"
         result="result95" />
      <feComposite
         id="feComposite6361"
         in2="result0"
         operator="in"
         result="result96" />
      <feComposite
         id="feComposite6363"
         in2="fbSourceGraphic"
         operator="atop" />
    </filter>
    <filter
       id="filter6179"
       inkscape:label="Clouds"
       x="0"
       y="0"
       width="1"
       height="1"
       inkscape:menu="Overlays"
       inkscape:menu-tooltip="Airy, fluffy, sparse white clouds"
       color-interpolation-filters="sRGB">
      <feColorMatrix
         id="feColorMatrix6181"
         type="saturate"
         in="SourceGraphic"
         values="0" />
      <feColorMatrix
         id="feColorMatrix6183"
         values="3 0 0 0 -0.3 0 3 0 0 -0.3 0 0 3 0 -0.3 0 0 0 1 0"
         result="result0" />
      <feTurbulence
         id="feTurbulence6185"
         baseFrequency="0.111"
         numOctaves="2"
         type="fractalNoise" />
      <feColorMatrix
         id="feColorMatrix6187"
         values="0 0 0 0 0 0 0 0 0 0 0 0 0 0 0 0 0 0 255 -200" />
      <feGaussianBlur
         id="feGaussianBlur6189"
         stdDeviation="1"
         result="result1" />
      <feComposite
         id="feComposite6191"
         in2="result0"
         operator="atop"
         result="fbSourceGraphic" />
      <feColorMatrix
         result="fbSourceGraphicAlpha"
         in="fbSourceGraphic"
         values="0 0 0 -1 0 0 0 0 -1 0 0 0 0 -1 0 0 0 0 1 0"
         id="feColorMatrix6207" />
      <feColorMatrix
         id="feColorMatrix6209"
         type="saturate"
         in="fbSourceGraphic"
         values="0" />
      <feColorMatrix
         id="feColorMatrix6211"
         values="3 0 0 0 -0.3 0 3 0 0 -0.3 0 0 3 0 -0.3 0 0 0 1 0"
         result="result0" />
      <feTurbulence
         id="feTurbulence6213"
         baseFrequency="0.111"
         numOctaves="2"
         type="fractalNoise" />
      <feColorMatrix
         id="feColorMatrix6215"
         values="0 0 0 0 0 0 0 0 0 0 0 0 0 0 0 0 0 0 255 -200" />
      <feGaussianBlur
         id="feGaussianBlur6217"
         stdDeviation="1"
         result="result2" />
      <feComposite
         id="feComposite6219"
         in2="result0"
         operator="atop"
         result="fbSourceGraphic" />
      <feColorMatrix
         result="fbSourceGraphicAlpha"
         in="fbSourceGraphic"
         values="0 0 0 -1 0 0 0 0 -1 0 0 0 0 -1 0 0 0 0 1 0"
         id="feColorMatrix6249" />
      <feGaussianBlur
         id="feGaussianBlur6251"
         stdDeviation="2.3"
         in="fbSourceGraphicAlpha"
         result="result0" />
      <feMorphology
         id="feMorphology6253"
         in="fbSourceGraphicAlpha"
         radius="6.6"
         result="result1" />
      <feGaussianBlur
         id="feGaussianBlur6255"
         stdDeviation="8.9"
         in="result1" />
      <feColorMatrix
         id="feColorMatrix6257"
         values="1 0 0 0 0 0 1 0 0 0 0 0 1 0 0 0 0 0 0.3 0"
         result="result91" />
      <feComposite
         id="feComposite6259"
         in2="result91"
         in="result0"
         operator="out"
         result="result2" />
      <feGaussianBlur
         id="feGaussianBlur6261"
         stdDeviation="1.7"
         result="result4" />
      <feDiffuseLighting
         id="feDiffuseLighting6263"
         surfaceScale="10"
         result="result92">
        <feDistantLight
           id="feDistantLight6265"
           azimuth="225"
           elevation="45" />
      </feDiffuseLighting>
      <feBlend
         id="feBlend6267"
         in2="fbSourceGraphic"
         mode="multiply"
         result="result93" />
      <feComposite
         id="feComposite6269"
         in2="fbSourceGraphicAlpha"
         operator="in"
         result="result3" />
      <feSpecularLighting
         id="feSpecularLighting6271"
         in="result4"
         surfaceScale="5"
         specularExponent="17.89999962"
         result="result94">
        <feDistantLight
           id="feDistantLight6273"
           azimuth="225"
           elevation="45" />
      </feSpecularLighting>
      <feComposite
         id="feComposite6275"
         in2="result3"
         operator="atop"
         result="fbSourceGraphic" />
      <feColorMatrix
         result="fbSourceGraphicAlpha"
         in="fbSourceGraphic"
         values="0 0 0 -1 0 0 0 0 -1 0 0 0 0 -1 0 0 0 0 1 0"
         id="feColorMatrix6365" />
      <feTurbulence
         id="feTurbulence6367"
         numOctaves="3"
         baseFrequency="0.040 0.107"
         type="fractalNoise" />
      <feColorMatrix
         id="feColorMatrix6369"
         result="result0"
         values="1 0 0 0 0 0 1 0 0 0 0 0 1 0 0 0 0 0 5 -2.7" />
      <feFlood
         id="feFlood6371"
         flood-opacity="1"
         flood-color="rgb(255,255,255)"
         result="result95" />
      <feComposite
         id="feComposite6373"
         in2="result0"
         operator="in"
         result="result96" />
      <feComposite
         id="feComposite6375"
         in2="fbSourceGraphic"
         operator="atop" />
    </filter>
  </defs>
  <sodipodi:namedview
     pagecolor="#ffffff"
     bordercolor="#666666"
     borderopacity="1"
     objecttolerance="10"
     gridtolerance="10"
     guidetolerance="10"
     inkscape:pageopacity="1"
     inkscape:pageshadow="2"
     inkscape:window-width="1680"
     inkscape:window-height="966"
     id="namedview3092"
     showgrid="false"
     inkscape:zoom="0.35355339"
     inkscape:cx="1665.3969"
     inkscape:cy="226.5645"
     inkscape:window-x="-2"
     inkscape:window-y="-3"
     inkscape:window-maximized="1"
     inkscape:current-layer="svg3090"
     width="230px"
     fit-margin-top="2.7755576e-17"
     units="px"
     inkscape:showpageshadow="false" />
  <g
     id="g6484"
     transform="matrix(3.2159296,0,0,3.1933568,2.7939937,-9.8519045)">
    <path
       transform="translate(0,13)"
       d="m 194.80427,89.125168 c 0,42.855382 -40.76296,77.596532 -91.04661,77.596532 -50.283653,0 -91.046608,-34.74115 -91.046608,-77.596532 0,-42.855383 40.762955,-77.596535 91.046608,-77.596535 50.28365,0 91.04661,34.741152 91.04661,77.596535 z"
       sodipodi:ry="77.596535"
       sodipodi:rx="91.046608"
       sodipodi:cy="89.125168"
       sodipodi:cx="103.75766"
       id="path3100"
       style="fill:#ffffff;fill-opacity:0;filter:url(#filter6583)"
       sodipodi:type="arc" />
    <path
       transform="translate(0,13)"
       sodipodi:open="true"
       sodipodi:end="7.95899"
       sodipodi:start="6.2334845"
       d="m 227.77122,105.4708 c 3.13075,61.39096 -45.35424,113.63368 -108.29424,116.68738 -5.87997,0.28528 -11.77376,0.12626 -17.62857,-0.47562"
       sodipodi:ry="111.29561"
       sodipodi:rx="114.10386"
       sodipodi:cy="111"
       sodipodi:cx="113.80826"
       id="path3108"
       style="fill:#000000;fill-opacity:0;filter:url(#filter15747)"
       sodipodi:type="arc" />
    <path
       transform="translate(0,13)"
       sodipodi:end="7.95899"
       sodipodi:start="6.2334845"
       d="m 227.77122,105.79578 c 3.13075,61.06484 -45.35424,113.03005 -108.29424,116.06752 -5.87997,0.28377 -11.77376,0.1256 -17.62857,-0.47309 l 11.95985,-110.0946 z"
       sodipodi:ry="110.70439"
       sodipodi:rx="114.10386"
       sodipodi:cy="111.29561"
       sodipodi:cx="113.80826"
       id="path3114"
       style="fill:#000000;fill-opacity:0;filter:url(#filter15733)"
       sodipodi:type="arc" />
    <path
       transform="translate(0,13)"
       d="m 215.79227,111 c 0,54.93652 -45.65979,99.47137 -101.98401,99.47137 -56.324219,0 -101.984018,-44.53485 -101.984018,-99.47137 0,-54.936519 45.659799,-99.471367 101.984018,-99.471367 56.32422,0 101.98401,44.534848 101.98401,99.471367 z"
       sodipodi:ry="99.471367"
       sodipodi:rx="101.98402"
       sodipodi:cy="111"
       sodipodi:cx="113.80826"
       id="path3892"
       style="fill:#000000;fill-opacity:0;stroke:#000000;filter:url(#filter6567)"
       sodipodi:type="arc" />
    <path
       inkscape:connector-curvature="0"
       id="path3897"
       d="m 211.65379,124.29561 c 0.48052,36.35007 -23.25537,70.7341 -56.32774,85.08797 C 118.55581,226.3308 71.780642,218.22622 43.490521,189.04987 18.927052,164.97965 9.8710084,126.57683 21.679394,94.193623 34.167232,57.663714 70.772903,31.915043 109.08395,30.562873 c 38.16638,-2.395201 76.96337,19.311971 93.4578,54.071991 5.99209,12.305477 9.13217,25.973826 9.11204,39.660746 z"
       style="fill:#000000;fill-opacity:0;stroke:#000000;filter:url(#filter6559)" />
    <path
       inkscape:connector-curvature="0"
       id="path10343"
       d="m 132.94669,67.478755 c 1.33562,1.444322 0.76141,3.43757 2.64508,4.389472 0.0516,0.11924 0.11623,0.450496 0.18036,0.481038 m 0.60195,-6.012974 c 1.63569,-0.359146 3.86044,0.573252 5.11102,-0.541167 m -0.0601,3.487521 c -0.21763,1.425309 2.37863,3.16379 2.82548,1.38299 -0.28727,-0.800529 1.02344,-0.854707 0.60106,-1.683635 m -11.96495,-1.984282 c 1.97282,-0.03501 1.46446,-1.06167 3.60778,-0.721556 m -1.2026,4.209076 c 2.72242,0.509078 5.95956,0.685437 6.01297,-2.044408 0.44368,-0.929595 0.70179,-1.97532 0.24052,-2.765965 m -17.19708,-19.72253 c 0.72807,-0.402954 1.28362,2.400878 2.31134,3.328391 2.07443,0.252364 -0.33557,-3.573145 1.05592,-4.049947 m 11.78541,14.43112 c 1.5329,-0.0743 2.60296,-0.47395 3.36726,0.481037 m 1.44311,6.734523 c 0.16769,1.054107 -3.17488,-0.702556 -3.36726,-2.886224 0.50306,-0.723227 0.0908,-1.85497 0.48104,-2.645706 m -2.40519,-2.886223 c 0.77239,1.490283 0.06,3.675382 0.96208,4.810373 m -3.36726,50.749441 c 0.0512,1.75135 -0.54558,3.53096 -0.48104,4.81037 m -0.24052,-6.25349 c -0.81939,-0.0441 -0.39869,1.65734 -3.60778,3.12675 -0.66723,1.01039 0.42531,3.23731 -0.72155,3.12674 m -35.115728,77.68752 c 1.506598,-2.32862 2.927602,-3.0745 5.772448,-3.60778 3.19837,-0.50408 5.33545,1.0086 7.76509,2.40626 -0.40679,-0.13012 -0.0198,0.4793 0.17203,0.23945 M 73.839228,121.71571 c 0.956201,2.70519 2.609656,4.95621 1.68363,7.93712 m -4.088817,-10.3423 c 2.692944,1.22912 5.489333,-1.24988 6.472083,-2.55388 0.804094,-1.03764 1.890256,-2.12287 3.148664,-2.01598 m 2.164667,-24.051864 c -1.84787,2.33108 -1.633602,5.508648 -4.15731,6.976111 -1.213061,0.623049 -1.401226,3.401023 -2.577212,4.809303 -0.786716,0.61228 -2.974679,0.73582 -3.848298,1.44311 M 56.281366,69.523164 c 2.844444,-0.742181 3.396901,-2.642844 5.772448,-3.848299 m -3.367262,-0.481037 c 2.636381,0.08288 5.010791,-0.438805 7.696597,-0.240519 m 2.645706,-1.68363 c 1.79298,-0.195594 4.789961,0.597718 5.531929,-0.962075 m 2.405186,-4.569854 1.202594,-0.240519 m -4.810374,2.405186 c 2.648723,-0.477801 4.538565,1.520458 6.494004,2.164668 m 31.748466,25.013941 c -1.19674,1.853533 -2.01451,3.596038 -1.92415,6.494003 l 0,0.481038 -0.24052,0 m -0.96208,-10.101784 c 0.95037,0.702436 0.97594,2.670482 0.48104,3.60778 m -6.25348,4.569855 c -0.27502,-1.606748 1.81615,-0.0133 2.6457,-1.202594 m -5.29141,-2.645705 c -0.547029,0.06304 -0.0157,2.072627 0,1.202593 m 2.64571,-1.924149 c -0.70532,1.726938 -0.91272,3.262232 -1.92415,4.569855 m 6.01296,-7.696598 c -0.76134,2.059586 0.2375,4.004943 -1.20259,5.050892 M 97.891094,71.447313 c -0.01437,1.208464 0.191798,2.36539 -0.481038,3.367261 m -2.645705,-6.253485 c 1.383047,2.520861 1.660544,6.807545 0,9.139709 l -0.240519,0.240519 0,0.240518 m -13.469044,-15.874231 -0.09019,0.360778 0.09019,-0.360778 z M 80.57375,61.105011 c 3.00792,-0.333366 4.307981,1.453395 5.316108,2.388226 0.142839,0.784278 1.160648,0.27003 1.177896,1.219554 M 68.788336,61.586048 c 1.937707,0.37928 3.470523,-0.429915 4.810373,-0.962075 m -16.11475,3.848299 c 3.029025,-1.261776 4.000144,-4.889706 6.975041,-2.164668 1.481197,1.065591 2.025859,1.009014 4.088817,0.962075 M 49.787362,71.92835 c 2.147683,-1.6843 3.549127,-3.788491 6.975041,-2.645705 m -1.68363,11.544896 c -0.112199,2.835888 -0.890381,2.526402 -0.721556,5.050891 M 48.584769,82.75169 c 3.362899,-1.713821 1.991685,-2.977574 5.050892,-4.088817 m 3.607779,6.975041 c 0.16292,3.223143 -0.322889,5.564412 -3.848298,5.531929 l -0.721556,0 m 81.598554,13.299607 c 0.0222,1.47591 1.12376,2.96309 2.55093,3.40148 m -3.82647,-3.31644 c -3.90676,-0.52984 -7.91866,-0.0501 -11.81983,1e-5 -0.023,0.26726 -0.20992,0.54433 -0.34,0.76534 m 10.20399,-9.779186 c 1.81116,0.914806 2.28258,3.45847 3.06096,4.506966 m 1.10582,-4.762075 c -0.66088,0.884946 -1.51189,1.645822 -2.2108,2.381025 m 8.3334,-9.864209 c 0.23515,2.687738 -2.15043,4.295464 -4.42149,4.847108 -0.24585,1.023395 -1.19324,1.582036 -2.04059,2.210973 m -5.0178,-48.470704 c -0.30001,1.290011 -1.75719,2.796446 -0.51008,3.656602 m 10.88449,7.228029 c -0.93769,1.100419 -2.86806,0.878484 -3.82652,1.955856 m 3.40134,-4.421905 c -0.84507,0.382168 -2.74186,0.345118 -2.89105,1.36061 m 1.27536,-2.976298 c -0.3607,1.062885 -2.20808,0.974146 -2.29583,2.040888 m 3.35754,-3.720978 c -1.08833,0.84483 -4.10809,0.782266 -4.2517,1.955852 m 2.16956,-3.677209 c -2.29909,-0.08066 -4.36386,-0.131528 -4.25171,2.466081 m -14.96647,-0.08507 c 2.18095,0.351121 4.94597,0.670023 6.1222,2.040928 m 3.40185,-0.850421 c 1.85113,0.187139 2.90251,1.932229 4.08137,2.466099 m -13.69045,-6.207691 c 2.18755,0.674451 5.0627,-0.365357 6.37736,1.785807 2.05468,0.840781 3.56878,-1.736791 5.27215,-0.170081 2.22169,-0.278752 2.81292,2.284577 4.93168,2.721208 -0.19827,2.300782 2.99437,3.069281 2.55072,5.442352 0.24472,0.177083 0.33764,0.544729 0.51014,0.68029 m -17.26104,-12.84059 c 1.50945,-0.02271 3.33945,0.129311 3.82633,1.445657 m 39.3383,145.372216 c 0.33774,3.1198 2.54327,6.04213 0.72463,8.69565 m -4.71014,-13.04348 c -0.10269,3.96742 0.61954,8.08793 -1.81159,10.86957 -0.28692,1.04412 -0.3737,2.2285 -1.08696,2.89855 m 1.08696,-11.95652 c -1.53512,2.90373 0.19393,7.02143 -1.44928,9.78261 -0.0214,1.83975 -1.10907,3.00474 -2.89855,3.26087 m 1.44927,-11.95652 c -0.97166,3.80677 -0.0614,8.58905 -2.89855,11.5942 -0.63785,0.0172 -0.99027,1.55126 -2.17391,1.81159 m -0.72464,-14.85507 c 0.61242,3.70921 -0.91269,7.19304 -2.19212,9.7594 -1.15369,1.50917 -1.20751,2.83105 -2.88034,3.28408 m 2.17391,-14.85507 c -2.48621,1.69282 -3.87094,4.3026 -5.07246,5.7971 -1.48773,1.32492 -1.72912,2.02363 -2.53623,2.89855 m 5.43478,-11.95652 c -2.78641,1.93625 -3.89153,4.93973 -5.7971,6.88405 -1.03023,0.56499 -2.6553,1.36147 -3.62319,1.8116 m 5.43478,-12.31884 c -2.24453,4.08822 -3.36955,6.39486 -7.60869,8.33333 0.0698,0.47945 -0.91235,0.83508 -1.44928,0.72464 M 98.550725,166.15942 c 4.385965,0.38255 9.304945,-0.95 13.146655,1.08857 -0.61279,-0.19602 -0.0298,0.72203 0.25914,0.36071 m -13.768114,-3.98551 c 2.656694,-0.61856 3.389234,-0.12164 5.797104,-0.72464 m -41.666669,11.5942 c 3.006297,-2.19523 -1.866952,1.09431 2.89855,-1.44927 -0.104237,-1.10772 3.756904,-0.0415 3.623189,-1.08696 M 53.623188,150.21739 c -3.595395,0.72868 -7.07388,0.71979 -9.420289,2.89855 -0.621734,1.37632 -2.26995,1.87096 -2.173913,5.07247 0.306599,3.23956 1.90062,7.3559 5.797101,8.33333 1.350477,0.68922 2.512022,1.31926 3.623188,1.44927 m 47.826087,-14.85507 c -4.37521,2.15783 -10.36151,0.30843 -14.492753,1.44928 -4.295006,0.0819 -7.586761,2.07354 -10.507247,4.34782 -3.820808,0.51288 -6.641916,2.70311 -10.144927,3.98551 0.164864,0.67388 -0.89617,0.42346 -1.086957,0.72464 m 5.797102,1.81159 c 2.57568,-0.87126 5.589727,-2.29483 8.515317,-2.53623 4.711088,0.85622 6.922679,-1.916 10.687581,-2.53623 2.458544,-0.86354 6.536365,-0.1078 9.603925,-0.36232 1.218145,-0.1823 2.822787,-0.25937 3.439557,-0.72464 m -49.637685,15.57971 c 2.811184,2.02081 -1.323011,-0.99608 2.173913,2.17392 0.429687,1.1925 0.399654,0.69679 1.449276,1.81159 m 16.304348,-29.71015 c -2.46748,2.3671 -3.667443,2.64029 -7.793981,2.53624 -3.734512,0.32631 -6.907065,-1.6517 -11.084118,-2.87979 -2.30489,-0.26831 -7.115926,-1.17268 -9.020452,0.34356 -1.326297,2.77871 -1.947073,3.33763 -3.26087,6.15942 -0.217275,2.91731 -0.570336,6.4361 1.086957,9.05797 -0.480746,4.1794 4.440171,5.73043 5.797101,8.69565 1.736825,2.84263 6.171927,1.51116 9.42029,1.81159 0.921732,1.73135 1.775002,2.0626 2.536232,2.89855 m 24.637681,-43.84058 c 2.665768,-0.0975 3.475595,0.40845 5.434783,-0.72463 m -4.347826,0.72463 0.543478,0 -0.543478,0 z m 0,6.15942 c -0.735393,1.76023 -2.527493,0.36727 -2.536232,2.17392 m -15.217391,-1.08696 c 1.844911,2.74689 -1.789477,-1.20642 1.811594,2.17391 0.812619,-0.15227 2.54107,0.60527 1.449275,-1.44927 m 103.526395,53.20915 c 0.31189,1.37577 -0.4852,1.52691 -0.59122,2.06924 m -3.25166,-5.91212 c 0.61398,3.11577 0.29892,6.91269 -2.66045,7.68576 m 15.07589,-16.84954 c 0.16129,3.06622 1.69784,6.87239 -1.47802,7.98136 -1.45587,0.55848 -2.32233,0.78149 -2.06925,2.66045 m 10.34621,-25.1265 c -2.80832,-0.8879 -0.73768,3.87049 -4.13848,4.43409 -0.96756,0.92689 -0.37075,3.04034 -0.88682,4.43409 m 7.09454,-25.4221 c 1.8822,3.28447 3.37968,7.10404 1.18242,10.3462 -0.41623,1.61174 -2.47959,2.38737 -4.13848,3.25167 -2.87531,1.23664 -5.29242,4.27394 -5.61651,7.39014 1.26569,3.16203 -1.18896,6.36366 -2.06924,8.86818 -1.93713,1.85701 -2.2798,4.35394 -2.06924,7.68575 0.70375,0.82758 -0.50761,3.37754 1.47803,1.47803 m -3.84288,5.3209 c 1.73094,-2.60175 0.57711,-6.74159 2.36485,-9.75499 1.98216,-2.78117 1.74209,-7.37886 2.06924,-11.18611 -0.5813,-3.34068 0.71274,-6.691 3.25166,-7.73266 2.45096,-1.30385 4.672,-3.15916 6.20773,-5.91212 1.95228,-3.81163 -1.7196,-5.96416 -1.18243,-9.66118 -0.17131,-1.23916 1.62444,-0.72504 1.18243,-2.16305 m -2.36485,-2.06925 c 0.78872,3.39095 0.078,6.85474 -0.59121,10.00369 0.52358,3.87902 -0.13742,7.17358 -4.13848,6.84585 -1.09133,0.61412 -3.62514,2.90366 -4.00728,3.57897 -1.46703,3.06811 -1.56052,7.29899 -1.60923,11.20132 -0.82215,2.6138 0.43073,6.77268 -2.66046,7.68575 -1.00753,2.08969 -1.08645,4.93523 -1.47803,7.29634 0.17012,0.77679 -0.74667,2.38749 -0.2956,2.16305 m 10.64181,-52.32224 c 1.9252,3.80518 4.32492,7.54207 2.95606,11.82424 -1.20197,2.21133 -5.05834,3.55475 -6.20773,4.72969 -3.31815,1.85045 -2.86205,5.82545 -4.43408,8.27697 -0.65271,2.25738 -0.32271,3.69839 -0.88682,6.20772 0.29703,3.71812 -0.24578,7.08837 -1.77364,10.0506 -0.8009,2.40913 -2.90491,3.99353 -2.66045,6.79893 m 7.68575,-48.47936 c 0.83549,0.37884 2.04298,2.30851 4.13848,5.0253 1.92841,2.97912 0.033,5.31101 -0.88681,7.39015 -1.17444,2.1018 -3.23149,3.86772 -4.7614,5.18969 -1.84424,1.29628 -1.12567,4.22333 -3.81117,5.74772 -1.41986,2.75246 -2.49427,5.09797 -2.06924,8.57257 1.41794,3.25683 -2.13003,5.5197 -1.18243,8.97615 0.23244,2.14298 -1.3626,2.36479 -2.06924,3.73491 m 8.27697,-44.93209 c 1.13799,1.93882 3.22295,4.05546 3.54727,6.20772 -0.48872,2.95438 1.16988,6.72132 -0.88682,7.98136 -1.25204,1.50291 -2.53043,2.19931 -4.13848,3.84287 -1.72697,1.44255 -2.97258,2.79923 -3.84288,3.84288 -0.82037,2.50115 -1.87408,4.3466 -2.95606,6.20772 -0.74812,0.94628 -0.0522,3.6282 -0.88682,4.13848 m 4.43409,-17.44074 c -1.45212,1.06595 -2.5706,1.74266 -3.84287,2.66045 m 5.0253,-18.32756 c 1.99072,2.88617 1.51293,6.5869 3.84287,9.16378 0.92697,2.14983 0.9809,5.41391 -0.88682,5.91212 -1.05984,1.67302 -3.80999,2.47482 -5.91211,4.13848 -1.20566,0.50168 -1.8556,3.60682 -2.95606,2.95606 m -21.28362,6.20772 c 4.8814,0.68652 9.94739,-0.11873 14.68648,0.88682 3.62226,-0.10899 4.34607,1.7415 5.11911,3.84287 3.60475,-0.63817 0.59031,3.58088 3.54727,4.13849 0.76039,2.75389 -3.28285,5.21587 -2.06924,9.02305 0.27025,3.1915 1.82243,4.40429 0.88682,8.57257 1.26399,2.6795 -1.12839,4.68674 -1.18243,6.34845 l 0.29561,0 m -0.88682,-61.48602 c 2.18144,2.14389 5.95433,3.20036 5.91212,5.91212 2.09504,2.45916 2.91226,6.88084 -0.29561,8.86818 -2.99099,1.89773 -4.93802,3.2282 -6.50333,6.20772 -0.34209,3.4307 2.02244,6.71629 0,9.45939 m -4.72969,-38.42877 c 0.71186,1.45167 5.25208,3.31969 8.72745,3.25167 4.52248,0.17876 8.83754,0.93904 13.14738,2.06924 2.22766,0.60119 2.69561,1.55289 4.13849,3.84288 2.04699,0.76123 2.24944,4.37994 4.13848,5.0253 2.38589,1.95747 3.74581,3.08038 4.13848,6.20772 1.09863,2.78008 -0.5256,5.74542 -1.18242,7.93445 -0.0908,2.46086 -1.53092,4.71128 -2.36485,6.55024 -1.09548,1.48373 -1.58161,3.73136 -3.25167,5.3209 -2.53315,2.11124 -0.88112,6.6887 -1.47802,9.75499 -0.33151,1.23284 0.85465,0.56483 0.2956,2.06925 m -43.15845,-2.95606 c 2.39094,2.64522 2.89602,7.41792 6.79893,7.09454 2.15675,1.61745 6.3973,1.14907 5.91212,-2.31794 1.10057,-3.49808 -1.86328,-4.41826 -4.7297,-3.88979 -2.26047,0.15214 -1.91314,3.77985 -4.43408,3.25167 m -8.27697,19.80559 c 4.7153,3.03481 10.6303,0.98758 15.66711,2.66045 1.67125,-0.18674 2.89847,0.65951 4.43409,0 m -48.18375,-2.66045 c 0.91579,2.89387 2.07441,4.44256 3.54727,5.61651 2.48065,1.78381 1.69912,4.50049 5.3209,4.7297 4.70252,-0.21898 10.04775,0.8853 13.30226,-1.77364 3.55703,-0.30596 3.40477,-3.85494 5.91212,-5.3209 2.10076,-1.60618 1.3961,-3.7895 -0.88682,-5.0253 -2.59438,-0.92022 -4.98575,-1.34656 -6.50332,-3.84288 -0.63179,-1.36624 -2.49455,-2.88291 -2.95606,-3.84288 m -11.23303,-8.57257 c 1.25691,1.06011 3.40732,2.55009 5.91212,2.66046 3.12753,1.03021 4.62925,3.76869 5.0253,6.75202 0.28689,2.86273 -0.98988,4.12667 -2.36485,5.07221 -0.67901,1.09411 -3.59192,1.84295 -5.0253,0.29561 -2.18538,-0.51669 -2.85832,-2.83376 -5.0253,-5.32091 -2.67925,-1.235 -5.58337,-2.07243 -7.98135,-3.25166 -2.42385,1.07017 -4.72679,2.09943 -7.981361,2.06924 -2.491218,0.12953 -3.456808,0.92599 -4.138482,3.54727 1.099534,4.39268 -4.26794,3.69198 -4.729694,6.50333 -2.211393,0.87104 -3.882466,-1.17378 -4.729694,-3.25167 -1.830343,-2.3341 -3.446036,-2.98667 -5.912117,-4.13848 -2.28724,-0.82386 -6.770895,-0.53661 -8.276964,-2.06924 -1.630311,-1.73552 -3.796318,-2.72009 -4.399245,-5.32889 -0.5676,-3.04996 -4.53233,-1.87025 -3.004889,0.45138 1.683553,2.8172 3.177121,6.01234 5.334893,7.83357 1.018585,2.53439 4.627671,1.94706 7.249421,2.36485 2.966757,-0.23423 5.894124,-0.49352 6.052842,2.95605 1.691395,2.48183 1.050411,3.81418 5.0253,3.84288 1.767784,1.3511 3.207073,2.80755 5.912117,2.36485 1.057972,-1.53898 1.714488,-3.0114 2.660453,-5.61651 0.353363,-4.37684 0.314041,-0.6601 -0.295606,1.43111 -0.434149,3.44343 2.163579,5.00119 4.951746,5.55448 1.94991,1.45081 4.481,-0.52881 7.16809,-0.18666 1.41334,-2.13525 1.15939,-6.71565 0.19793,-9.19854 -2.43686,-1.6413 -2.96353,-1.3721 -6.40565,-1.14766 -2.007077,1.81516 0.30269,5.22871 1.6033,4.92998 l -0.0712,0.0845 0.24149,0.0108 M 71.832224,186.81625 c 0.645154,1.26323 1.506119,1.2854 3.54727,3.84287 1.563944,0.62888 2.4924,2.59307 3.251664,3.54727 0.696447,1.49564 5.489483,5.57427 5.0253,2.06924 -0.641475,-3.05649 -1.2017,-7.4277 -4.729694,-8.27696 -1.821965,-1.40547 -3.686974,-1.64392 -4.729693,-3.54727 -0.609184,-0.63754 -1.382926,-1.34116 -1.47803,-1.77364 m -4.434088,-3.25166 c 1.602971,-1.93287 2.482025,-2.74885 3.842877,-3.84288 0.782929,-0.48419 0.953768,-0.8701 1.478029,-1.18242 m -0.295606,2.95606 c -2.091324,2.43176 -2.809742,5.29668 -2.570882,8.23611 -2.089485,0.82278 -3.468801,-0.77743 -3.045629,-3.21081 -0.246341,-0.54195 0.394138,-0.19708 0.591211,-0.29561 m 28.673769,-5.91212 c -0.345675,2.81002 -0.295594,7.06703 -3.547271,7.39015 -1.620651,1.17126 -4.055858,1.46998 -5.912117,2.36485 -3.208601,-0.27902 -5.77604,-2.28622 -7.09454,-5.32091 -1.187691,-1.78153 -2.743532,-11.05606 -2.660453,-4.57481 1.059596,3.68886 -2.058758,5.10308 -2.660453,8.12208 -2.770291,-0.74546 -0.294793,-6.13414 -0.295606,-7.68575 -2.433379,1.38802 -4.560891,3.38565 -6.503329,4.72969 -0.04916,0.0777 -0.698277,1.16752 0,0.88682 m -8.868175,2.36485 c 1.887343,1.82472 6.11994,4.18974 7.685752,1.18242 2.846918,-2.40084 -1.861021,-5.64583 -0.886818,-8.27696 -0.128476,-2.58589 2.658749,-3.12049 4.396557,-4.15061 1.283379,-2.4223 0.886572,-7.02344 4.176013,-6.78681 2.924047,-0.83218 5.666499,-0.9258 7.685753,1.47803 1.755292,0.93691 4.070083,3.48757 5.616511,4.13848 2.112325,1.00668 2.781645,3.43722 4.434088,2.06924 0.653598,-1.25279 0.287815,-4.08374 1.182423,-5.3209 M 79.517976,129.76431 c 3.896982,0.64228 -0.05299,6.20688 2.364847,1.47803 0,0.68972 0,-2.06924 0,-0.88681 m 1.773635,8.86817 c -1.010307,1.01848 -2.920604,0.64658 -3.54727,1.18243 m 9.459387,-3.25167 c -2.093546,-0.31044 -3.689933,1.63995 -4.054302,2.36354 -3.218211,1.39267 5.528838,-3.59037 5.696724,-4.46449 0.898854,-1.33505 3.840851,-2.67445 3.678484,-4.69798 -2.626183,2.57627 -0.752659,-1.65322 -2.069241,0.2956 -2.978974,2.04057 0.01692,0.73498 0.886817,-1.47803 -0.76065,-2.94744 -2.213749,1.36707 -3.251664,1.47803 -1.229112,1.81294 -1.601315,3.52008 -3.251665,4.43409 -1.879721,1.22853 -2.704289,2.19934 -4.138482,3.84288 -0.418903,0.28368 -0.543696,0.37838 -1.182423,0.88681 m -11.528629,-5.0253 c -2.577405,0.0169 -6.765114,2.4549 -3.842876,4.43409 2.162416,0.93709 0.10268,4.65572 -2.956058,3.25167 -1.455687,0.15817 -5.164315,-1.70752 -7.93445,-1.47803 -3.887973,0.406 -7.805162,-1.2524 -11.279931,0.59121 -2.409102,0.60866 -4.777552,1.65063 -6.798935,2.66045 -1.170439,0.68964 -2.291402,2.69562 -3.54727,4.13848 -1.093104,1.76973 -1.835541,3.24032 -2.956059,4.7297 -1.407455,1.91517 -0.07898,3.99509 1.182424,5.91211 0.667332,2.63823 0.814362,5.06705 2.069241,6.79894 0.655514,2.10248 1.043823,4.76917 2.628749,6.04333 0.820036,1.17211 2.098733,2.47823 4.170185,3.12045 2.92562,0.70988 4.766227,1.65028 6.798935,2.66045 1.675195,1.26202 3.557862,2.51968 4.565301,3.81117 1.455275,1.22767 4.576218,2.7099 7.258933,2.69216 m 20.988016,-44.63648 c 1.847822,-3.19765 -0.893399,2.50502 0.886818,-1.47803 -3.898802,1.79254 -3.498227,5.35805 0.544303,5.3209 3.354841,0.44777 4.250204,-1.90325 6.550238,-2.95605 1.122234,-1.07798 4.945455,-2.04521 3.773458,-2.9649 -4.518764,0.10809 -1.399034,-2.7303 0.956235,-1.7648 1.826196,0.99629 2.474032,6.17087 -0.591211,6.50333 -2.55791,1.67418 -5.701404,1.48467 -8.57257,2.95606 -3.322874,0.18594 -2.672279,4.06308 -6.503329,4.43409 -2.64356,1.16523 -4.179747,1.76159 -6.503329,3.25166 -3.164183,2.27616 -8.51481,1.23219 -12.711052,1.47803 -2.964688,-0.68888 -4.9644,-1.3601 -8.276964,-1.18242 -3.940651,-0.0594 -5.530516,2.73198 -4.138482,6.50333 -0.307688,1.20723 1.462072,3.12352 3.251664,4.43408 2.161791,0.63386 6.866377,0.44908 8.441357,-0.62291 1.316833,-1.71445 2.402894,-3.03429 4.565301,-3.51557 2.699884,-1.23038 4.875607,-1.93618 6.503329,-4.13848 1.50713,-1.82832 5.41865,-0.99476 6.798935,-3.84288 2.03742,-1.71374 5.196538,-0.82993 7.09454,-2.66045 1.518067,-0.74366 2.085708,-2.60096 4.434088,-2.66045 3.4179,-0.19802 7.15204,-1.24349 10.367049,-0.0304 1.585171,3.33134 3.633223,1.98312 6.482483,2.69081 0.98294,-0.24725 1.74576,0.29441 2.66046,0.29561 M 87.499334,123.55659 c -2.676892,0.66328 -3.264143,2.49832 -5.795064,4.61264 -2.701657,0.864 -6.030211,2.26714 -7.211594,5.14235 -0.306679,2.07927 -2.13083,3.67734 -3.251664,4.43409 -0.506028,2.542 -2.733945,2.40338 -1.182423,4.7297 -0.453001,1.34031 2.284152,1.27356 5.025299,1.18242 1.119159,-0.30784 3.821334,-3.23583 4.729694,-4.13848 1.893681,-0.94937 2.889405,-3.58775 5.025299,-4.43409 1.758194,-0.6982 -0.353616,-4.88605 2.364847,-5.32091 2.372996,-0.53853 2.275639,-5.19017 0.295606,-6.20772 z m 7.685753,-6.50333 c -2.389836,-0.68288 -5.882215,3.003 -2.660453,-0.59121 m -3.54727,4.13848 c 2.91404,-1.87561 4.69552,-2.49158 7.09454,-4.72969 2.368029,-3.55714 6.492386,-4.56054 9.459386,-7.98136 0.56515,-0.91213 1.23974,-2.34173 1.77364,-3.25166 m 9.16378,-14.189085 c -1.88081,2.469146 -4.12633,3.472722 -5.32091,5.0253 -1.9039,1.1822 -2.8519,2.436524 -3.87458,3.711663 -1.47245,1.266102 -1.23958,3.138012 -3.51556,3.974092 -0.71479,1.21686 -2.85018,2.02831 -3.84288,3.84287 -1.755639,1.60267 -2.684109,3.31873 -4.434088,5.0253 -1.097922,1.38604 -3.499001,3.40106 -5.025299,5.0253 -0.652229,2.40277 -3.79936,7.17913 -2.078841,3.44033 2.07545,2.78757 3.968564,-1.39006 5.921717,-1.66669 2.427455,-1.85963 4.648375,-3.34195 5.320905,-6.20773 2.124496,-3.17263 3.783866,-5.22186 7.685756,-5.61651 1.0951,-2.57841 0.0181,-3.69618 2.33314,-5.15651 0.47847,-1.00453 3.83826,-2.623658 4.17019,-4.302874 0.77433,-0.467039 0.97347,-1.264006 2.36484,-1.773636 m 3.84288,63.55526 c 3.01272,0.0838 5.72205,-0.94395 8.27696,0.59121 0.80643,1.59792 2.89673,2.14104 5.0253,3.25167 -0.4049,-0.21347 0.71864,-0.8168 -0.2956,0 m 9.16378,-8.27697 c -1.15362,0.79293 -1.9161,4.36808 -5.0253,5.0253 m -9.16378,-4.72969 c 3.67891,-0.37741 8.04256,0.94032 11.23302,0 0.6854,-1.39404 3.43121,-1.13441 5.0253,-1.18243 m -3.84288,-1.47802 c 2.63652,0.42893 6.74362,1.99795 9.45939,0.88681 1.04438,-2.40149 1.6303,-3.29226 3.84288,-4.72969 1.24834,-0.0894 1.77936,-1.65327 2.66045,-2.36485 m -21.87483,-6.20772 c -3.18085,0.46915 -4.44837,2.45913 -6.79894,2.95606 -2.1678,2.28253 -4.63483,1.91931 -7.09454,4.43409 0.15128,1.59401 -2.14532,1.46423 -2.95606,2.06924 m 14.18908,-20.69241 c -1.81591,0.54588 0.67293,0.85514 -1.77363,3.54727 -0.99204,2.87612 -1.11017,5.08864 -3.54727,6.79893 -2.40308,1.84268 -4.66916,2.25007 -6.50333,3.84288 -1.72788,0.41795 -4.43601,0.27804 -5.32091,0.2956 m 23.94408,-2.06924 c 2.27129,-0.87799 6.21592,-1.00404 5.91211,-4.72969 -0.31717,-1.76377 0.87245,-2.2302 0.88682,-3.54727 m -10.3462,-4.13848 c 0.67056,3.62521 1.51408,5.67618 0.2956,9.16378 -1.12328,2.26403 0.66249,4.71304 2.06924,4.13848 m 42.27164,-56.756325 c 1.08389,0 2.16778,0 3.25167,0 m 3.25166,10.641811 c 1.7963,0.06245 0.408,0.921321 2.95606,0.886818 -0.24634,0.541942 0.39414,0.197074 0.59121,0.295606 m -37.24634,15.96272 c 0.98922,-0.33712 1.8222,0.60099 3.25167,2.06924 -0.17854,1.74389 4.73206,1.79952 5.91211,2.66045 m -2.36484,-9.75499 c 0.46457,0.93947 0.24517,1.96511 0.2956,2.95605 m 5.0253,1.77364 c -1.6662,0.15292 -0.0657,2.47923 -1.77363,2.06924 m -1.47803,-0.88682 c 1.45233,-0.79709 2.12126,-0.75665 2.95606,-2.95606 m -2.66046,11.23303 c -1.35253,-0.45729 -0.56764,-0.69945 -2.66045,-2.36485 l 0,0.29561 m -2.06924,-1.18243 c 0.0192,-0.8777 0.50455,-2.10761 3.25167,-2.66045 -1.03526,1.41477 0.63427,0.55069 0.2956,1.18242 m -2.95606,-10.3462 c -4.01329,-0.74441 -2.01331,3.58424 -5.3209,2.95606 m -2.06924,-8.57257 c 2.57023,0.46349 3.09984,2.89995 5.71812,3.75973 -1.89658,1.56706 -3.67099,3.53626 -4.83131,5.40405 -0.98535,0 -1.9707,0 -2.95605,0 m 2.06924,-13.006659 c 2.1022,1.864812 3.15126,3.815599 5.3209,5.025299 l -0.2956,0 m 2.95605,-2.06924 c -0.22133,3.15238 0.42664,5.81548 2.95606,6.50333 1.73098,1.66861 3.2992,2.39112 4.43409,4.43409 2.16708,0.92316 2.86475,2.98909 2.95606,5.0253 -2.55961,1.31104 -3.79896,5.35355 -4.13848,6.79893 -2.52105,2.17416 -6.48232,0.14451 -6.20773,-1.77363 -3.43594,0.33072 -2.76836,-3.62658 -5.0253,-3.84288 -2.43753,-0.75687 -2.96829,-3.26715 -5.35126,-4.70885 -0.87488,-2.93196 0.30518,-5.86043 2.0996,-6.81978 2.87246,-2.85638 -2.26222,-3.19685 -2.95606,-5.3209 0.42683,-0.83621 3.02767,0.0467 3.84288,0 m 30.74301,4.13848 c -3.46085,-2.39001 -7.87138,-1.2288 -11.23303,-3.25167 -3.64617,0.55827 -6.53137,-0.72058 -9.75499,-1.18242 -1.83855,-0.10709 -4.11278,-1.382743 -4.13848,-2.956059 m 30.1518,9.459389 c -3.72471,-1.50424 -5.86011,-2.67758 -5.91212,0.59121 l -0.29561,0.29561 0,0.2956 m -5.61651,-8.572567 c 2.93255,0.881167 7.16506,0.921997 7.68575,3.842877 1.6952,2.03903 6.43556,1.75764 8.86818,2.95606 m -2.36485,-5.0253 c 0.47739,-2.044745 -3.83504,-2.443195 -6.3626,-3.251667 -5.83264,-0.477976 -10.68933,3.364757 -16.69465,1.182424 -3.11154,0.108837 -6.16886,-1.230849 -9.16378,-2.364847 -2.09023,0.08697 -3.24477,-2.376579 -5.0253,-2.956059 m 28.08255,-7.09454 c 1.50461,-0.436793 3.03507,-0.199713 4.43409,-0.591212 m -2.36485,3.54727 c 1.4418,0.113749 2.38347,-0.138366 3.54727,-0.295606 m 2.95606,7.390147 c -2.98127,-1.166146 -7.72716,-2.925307 -10.0506,-2.364847 -3.18563,0.619932 -4.53734,2.162739 -7.98136,2.660453 m -15.66711,-7.981359 c 2.50459,1.468814 -1.56719,-0.882472 1.47803,2.069241 l -0.2956,0 m 24.53528,-4.138482 c -2.48585,0.384964 -5.85534,1.745168 -7.39014,3.251665 -2.0628,1.078962 -2.67773,2.412942 -5.22709,2.660453 -4.01774,-0.659056 -5.70694,1.246761 -8.92293,1.722972 -3.35267,1.492523 -4.29815,-1.340983 -5.06436,-3.792213 -0.55861,0.04943 -0.90997,-0.624698 -1.47803,-0.591212 M 181.502,85.12783 c -2.38875,1.86312 -7.44222,-0.910168 -8.86818,1.478029 0.30539,3.096514 -3.30798,4.894576 -6.20772,4.729694 -2.64096,1.311331 -5.69469,-0.411799 -7.98136,-2.069241 m -6.79893,4.729693 c 3.67762,1.085558 6.32817,3.256723 10.05059,3.842876 1.60377,3.217289 5.46094,-0.14696 7.98136,-0.591211 2.48312,-1.58338 3.25526,-4.290849 5.32091,-4.729694 2.60297,-0.841192 4.01812,-2.23057 7.09454,-1.773635 -0.70076,0 0.022,0 0.2956,0 m -7.09454,-9.459388 c 3.27523,-0.727157 7.58197,0.604671 7.98136,4.138482 0.89937,0.656826 1.56855,3.691895 2.95606,4.138482 1.1718,1.369042 0.17888,4.979543 2.95606,5.0253 2.04094,1.443692 0.12497,4.356955 0.88682,5.912113 -0.37113,2.33526 0.59281,5.93026 -1.47803,6.79894 -2.5797,1.62865 -5.27827,2.52387 -9.02306,2.06924 -2.64718,0.61467 -3.01002,-2.3372 -4.57481,-3.25166 -3.79039,-3.02801 -8.9562,-2.74812 -13.59787,-3.84288 -2.43868,-0.91723 -5.83731,-4.222531 -7.16844,-3.473369 0.93859,-0.675442 -2.81144,-1.767014 -4.06458,-2.734355 m 7.39014,-10.641811 c 1.8699,-1.400946 1.00791,-5.592073 1.18243,-8.572569 0.13841,-1.931076 -1.94442,-2.806087 -2.95606,-4.138483 m 2.36484,-3.54727 c 2.41729,2.051633 4.28699,2.629263 7.39015,3.54727 1.4934,1.1147 1.9671,5.009872 1.77364,7.981359 -0.15622,0.651349 0.79914,1.040295 0.2956,1.773635 M 156.67111,67.391478 c 3.33503,-0.24071 6.15085,3.76369 9.45938,4.434088 1.77708,0.708214 1.31236,4.210443 4.7297,4.729694 m -15.66711,-6.207723 c 3.64488,1.941008 8.34807,4.531615 7.39014,8.868175 -0.68947,1.7326 0.38183,3.00877 0,5.0253 m -7.09454,-18.918775 c 3.41193,0.06098 5.91947,0.602156 7.68575,3.251664 1.77694,1.248604 5.20567,1.935282 7.09454,3.842877 0.99019,0.819228 1.51123,4.350238 2.65915,4.349908 0.91901,2.3061 2.50858,4.947675 -0.2943,5.996297 -1.81953,1.731815 -4.11277,2.523705 -7.39014,2.956058 1.48387,3.069769 -3.05867,2.235401 -5.91212,2.364847 -2.32601,-0.676867 -4.16853,-0.108681 -4.43409,-2.956058 m -9.16378,-15.371505 1.0348,0.269008 1.03444,0.0266 m 1.77363,0.886817 c 2.40135,-1.064422 2.53868,-4.504232 4.13849,-5.025299 0.56923,-0.35917 1.13706,-0.73976 1.47803,-0.886818 m -7.98136,5.616511 c 3.43732,-0.683983 4.25435,1.895137 6.79893,3.547271 2.82499,0.929765 1.3594,3.952525 2.66046,6.207723 -0.86493,1.993812 -0.87869,4.537379 -1.18243,6.798935 m -14.48469,23.352867 c 1.37849,-2.87128 1.17387,-6.10225 4.43409,-7.09454 1.02055,-1.34934 2.88338,-2.53967 2.36485,-5.320911 1.45703,-3.44943 3.24547,-6.540726 2.66045,-10.641811 2.61335,-1.579519 0.58962,-6.014544 2.06924,-8.276964 0.51809,-0.654176 0.97115,-1.006581 2.06924,-1.182423 m 3.84288,-23.944075 c 2.14352,2.490236 2.59085,5.110787 4.13848,7.685753 -0.39521,3.15351 0.61309,5.138155 0.59121,7.09454 m -18.91877,-6.798934 c 1.62537,-2.023886 1.56024,-1.886629 4.13848,-3.251665 3.44481,0.330585 -2.0102,-2.976121 1.77364,-3.251664 3.36598,-2.847865 4.94779,2.182647 3.25166,4.729693 -1.46284,2.63451 1.82148,2.772679 1.18242,5.320906 m 7.98136,-21.874834 c -3.15866,0.17435 -4.58206,5.523895 -4.13848,5.0253 -1.94834,2.952087 0.8529,2.943539 -0.59121,5.320905 0.89013,1.088774 -2.86273,-2.862787 -3.25167,-1.773635 m -10.64181,5.616512 c 1.27723,-2.321968 3.37919,-3.072501 5.0253,-4.434088 1.54363,-0.870467 4.22509,-3.213334 0.88682,-2.956059 -2.67836,-1.540524 0.19823,-1.70774 1.18242,-2.956059 0.6377,-1.558656 3.02938,-1.843223 5.0253,-2.069241 1.36475,-1.149284 2.53286,-1.856663 3.84288,-3.251664 m -24.53529,28.378162 c 2.69453,1.649454 5.04203,-2.94092 6.20773,0 2.21971,2.796491 2.11242,-1.754868 3.84287,-1.478029 m -4.43409,-17.14514 c -0.89227,0.924184 1.73266,1.092165 0.29561,3.842877 0.51183,0.607256 2.8087,2.149761 2.36485,4.635877 1.41946,1.556842 1.33151,2.2465 0.2956,4.527904 1.83019,1.789817 0.65053,3.083364 1.18243,5.616511 M 126.51931,57.340879 c -4.01248,-0.229898 -2.96639,-4.182024 -7.63884,-3.54727 -4.18222,-0.7786 -2.28438,-2.642282 -1.22934,-5.0253 1.02793,-2.155305 2.18738,-1.857272 4.13848,-2.364847 0.816,-1.870901 3.86498,-1.059611 3.84288,-1.773635 3.1515,-1.047778 5.54016,1.183996 6.20772,1.478029 1.91873,-2.921354 0.19174,7.0374 5.61651,1.478029 4.80647,-1.607543 6.72299,2.390276 2.36485,3.842877 m -10.64181,23.057257 c 1.05448,2.092745 -0.64501,-0.626041 2.06924,2.660452 m 3.84288,-18.918775 c 0.72533,-1.988799 -3.61573,-0.685572 -6.20773,-0.591211 -1.40641,1.192981 -3.63291,1.036509 -4.43408,2.660452 -3.15277,2.053889 -2.32321,5.197702 -0.59122,8.821267 -0.46244,2.557852 4.5322,1.664043 1.73576,2.088437 0.13384,1.527301 -0.93798,2.300714 1.72346,2.582256 2.67779,0.685489 2.69139,0.537365 1.57098,0.194601 m 5.31601,-6.296414 c -0.44364,-2.129007 10.21526,-0.163768 5.32091,-3.251665 -1.53207,-1.700647 -3.00608,-2.882137 -3.54727,-5.025299 -0.38953,-0.05493 -1.24525,-0.216699 -1.18243,-0.886818 m -11.52863,30.447404 c -0.0667,-2.532637 1.53718,-2.235578 1.66894,-3.066911 1.25458,-2.477401 2.12663,-5.179083 3.94757,-6.688083 0.50596,-1.554209 3.70626,-1.313815 4.7297,-3.251664 2.66343,-1.869022 1.79731,-4.686671 0,-7.390147 -0.38726,-1.242208 -4.10833,-1.868866 -4.7297,-1.773635 -1.43362,-0.589008 -3.60094,-0.157975 -5.91211,-0.295606 m 10.3462,20.988016 c -4.30112,2.072624 -5.7575,5.927097 -5.91211,10.0506 -1.22237,3.001834 -4.25828,4.433454 -5.91212,5.616514 -2.46333,-0.19518 -4.75786,-3.272036 -5.32091,-5.616514 -1.16568,-3.411437 1.66759,-6.182365 1.77364,-9.163782 1.24126,-1.978968 0.92019,-6.178994 2.95606,-7.390146 1.41431,-0.705325 1.8234,-1.897038 3.82567,-2.30072 2.68829,-3.176786 -0.19494,4.642779 1.49523,2.891931 -0.64333,3.180864 -3.81918,3.16537 -3.84287,5.912117 -0.40829,3.053526 1.8483,3.626123 -0.88682,4.729694 m 23.05725,-2.069241 c 0.35465,3.776153 -0.61671,7.629606 -2.79166,9.72329 -1.54402,1.014891 -1.39404,5.234341 -4.00727,5.943821 0.24971,0.63635 -0.74491,0.28628 -0.88682,0.88682 m -2.66045,10.64181 c 0.0125,-2.1908 1.23721,-4.22953 2.95606,-5.91212 1.25207,-0.71295 0.98196,-2.83791 0.2956,-4.13848 m -33.99467,17.44074 c -2.96725,-0.73477 -2.22174,-1.94555 1.8347,-1.47802 3.64989,0.35178 6.08226,-0.79518 9.10272,-1.47803 3.90925,0.0172 6.49425,-2.24945 10.64181,-2.06924 2.59045,-0.29491 4.95159,-0.61492 7.34323,-1.18243 2.49901,-0.35928 5.58806,1.02482 5.95903,-1.18242 1.26136,-2.70077 1.19131,-6.14917 3.25167,-8.57257 m -32.81225,41.38482 c -1.85724,-3.00003 -2.15089,-5.71245 -3.25167,-8.86818 -0.74821,-2.23378 -2.21953,-3.49284 -3.54727,-4.43409 -2.261728,-2.54189 -2.772699,-5.6973 -5.02661,-8.06553 -1.574135,-0.47695 -1.32392,-3.59723 -3.044022,-5.62161 -2.120947,-1.78424 0.641775,-4.68268 1.86291,-5.52724 2.947125,-1.45596 3.5486,-2.18341 5.616512,-4.13848 1.42894,-1.69605 4.24,-2.73538 5.17309,-3.53328 2.75987,-1.12828 5.14662,-2.67959 8.72038,-2.67444 1.33864,-1.11933 4.57068,-0.4849 5.91212,-2.66045 m -10.64181,30.4474 c 0.9238,2.83595 1.47734,5.2268 2.95606,7.09454 m -5.61651,8.27696 c 2.2266,2.36233 1.73878,6.65102 -0.29561,8.27697 -0.7932,1.33126 -1.77828,4.59401 0.96209,4.53846 0.5945,0.63507 4.65902,0.064 4.95003,-1.2868 1.4817,-2.35109 2.16283,-4.63893 2.66045,-7.29633 -0.94293,0.0596 0.94143,-3.81172 1.47803,-5.11911 -2.6085,-2.85225 -3.01709,-6.79105 -6.79893,-8.86818 -2.03012,-2.28924 1.20459,-6.05913 -0.59121,-8.57257 -1.40443,-3.39229 -4.72533,-5.04916 -7.39015,-7.68575 m 34.88149,55.86951 c -1.5868,-2.75748 -1.70366,-6.0968 -2.91134,-8.88184 -2.79456,-1.04529 -2.64446,-4.11553 -1.81835,-6.48967 2.07115,-2.16123 4.3458,-2.71457 7.68575,-3.25166 2.82067,0.1938 4.5588,-2.61604 5.91212,-3.54727 1.15916,-1.29296 4.91061,-1.60303 5.91211,-2.95606 2.70746,-0.21946 3.90023,-1.14766 5.61651,-2.36485 1.11555,-0.75546 2.66399,-2.11185 3.54727,-3.54727 0.6632,-2.64221 1.47052,-4.52655 2.36485,-7.09454 m -23.05726,23.05726 c -0.51314,3.80089 -4.63854,2.403 -7.68575,2.66045 m 29.85619,-18.91877 c -1.00743,0.24635 -0.91331,1.45892 -2.95605,2.95605 -0.77154,1.54158 -2.80728,3.02486 -4.43409,4.13849 -1.50177,1.40817 -3.51083,2.34209 -4.7297,3.84287 -1.259,0.89458 -2.82929,2.397 -4.43408,2.66045 -2.04775,0.92807 -5.3936,0.70143 -5.61652,3.84288 0.25717,4.04346 -2.39632,0.74756 -5.3209,1.47803 m 15.66711,12.11984 c -1.9341,-0.12051 0.36214,-5.11437 -2.66045,-5.0253 -3.43645,-1.45048 -5.16289,-4.40065 -3.25167,-7.39015 1.89945,-1.18805 4.42615,-0.90463 5.91212,-1.47803 2.60054,-0.64498 4.45428,-2.28218 6.33893,-3.81117 1.01459,-0.15895 2.88482,-2.98965 3.71036,-3.19918 1.1024,-1.57483 3.15434,-3.2295 2.66176,-5.9963 0.47887,-3.00238 0.14891,-6.41326 0.88682,-9.06997 0.19044,-2.63523 -1.28417,-3.55716 -1.47803,-6.30154 -0.9679,-1.73105 -4.30203,-5.07793 -5.0253,-5.0253 -1.80238,-1.10188 -3.13515,-2.48168 -5.61651,-3.54727 -1.05496,-1.33021 -4.11648,-2.70457 -5.0253,-4.13848 -1.55607,-0.96 -3.51744,-3.13367 -6.20772,-3.84288 -1.42941,-0.62902 -2.69198,-0.51126 -4.13849,-1.18242 m 0.59122,55.2783 c 3.13199,0.95181 1.86664,4.14277 4.43408,5.0253 1.1081,0.40462 0.31856,2.10535 1.77364,2.66045 M 116.1731,155.48202 c 2.68739,1.91283 2.88814,3.68466 3.54727,6.50333 0.299,2.774 0.81208,5.8851 1.18243,8.57257 1.60491,1.77962 1.88604,2.88031 3.54727,3.84288 3.57644,1.15668 -0.12828,4.96736 -3.54727,3.54727 -3.29981,0.52663 -6.05116,1.39048 -9.16379,2.06924 -3.37149,-0.4038 -4.543,2.59746 -8.27696,2.06924 -2.78515,0.58818 -3.975914,1.26257 -5.912117,3.25167 -1.68578,0.77126 -1.351461,3.12147 -2.660452,4.72969 -3.09999,0.85208 2.416842,2.04693 4.387179,1.77363 1.34028,0.14151 2.81948,-0.0377 3.00297,-2.36484 2.61885,-1.26231 6.65002,-0.47586 9.11687,0 2.71728,0.19083 5.37953,0.0959 5.66342,-2.36485 3.36228,0.36903 7.42527,-0.6248 9.45808,-1.68945 1.20455,-2.7888 6.19046,-1.66621 8.86948,-2.44903 1.85544,-0.96183 3.02339,-2.63325 2.66046,-5.0253 -1.06464,-2.15591 -1.64403,-5.37904 -3.12046,-6.23943 -1.62864,-1.41721 -1.69988,-4.88635 -0.42681,-6.47162 -0.32015,-1.17348 0.95047,-2.57651 0.88681,-2.36485 M 88.090546,143.9534 c 3.488544,-0.2108 7.113296,0.0183 9.163782,2.06924 2.869932,0.37094 3.091842,3.33188 6.207722,3.25166 1.6356,0.16764 3.32782,0.77 4.43409,1.18242 M 32.81225,131.24234 c 1.059833,-0.59872 2.620923,-4.05329 5.912118,-2.36484 0.333767,-3.03166 3.372442,-2.70738 6.207723,-3.54727 2.025455,-1.23609 6.3689,-1.84799 8.572569,-0.59122 2.77513,-0.37368 3.814907,1.82828 5.0253,2.66046 1.214141,0.71956 2.811398,1.95942 3.842876,2.95606 0.87513,1.88918 4.634751,2.26168 5.865209,2.36484 1.299037,0.39279 0.287592,2.92413 2.116149,2.36485 -0.142373,0 1.554798,0 0.591212,0 M 52.322237,117.94008 c 0.591212,0 1.182423,0 1.773635,0 m 9.459388,-16.84953 c 3.065135,-0.38005 4.081747,3.52229 2.743591,4.5357 l -0.08314,-0.10162 0,0.29561 m 3.842877,-2.66045 c -2.087619,-2.9922 1.521513,-4.225681 2.956058,-4.138485 0.372357,0.129447 0.537558,-1.361391 0.295606,-0.886818 m 4.729694,-15.371504 c 0.680122,3.643826 6.419834,3.780418 0,0 -1.628127,-0.124378 -1.870452,0.110993 0,0 z m -10.346205,7.390146 c 2.733737,0.788605 6.235987,-0.05401 8.868175,-1.182423 1.361629,-2.16587 0.695056,-5.058218 0.591212,-7.981358 2.293713,0.265507 2.226,3.221639 3.842876,3.842876 2.399563,0.766968 2.808186,1.886999 0.591212,2.364847 -1.141156,-0.481862 -2.875388,2.457505 -3.842876,4.138482 -2.126078,1.111837 -1.80989,2.429851 -1.810161,3.822787 -1.134239,0.837295 -0.0027,4.577935 -1.441504,6.52342 -0.522508,0.24993 -2.028225,1.7422 -3.251664,2.36485 M 83.656458,76.259654 c -1.763284,-1.187521 -4.523637,-1.100117 -1.478029,0.591212 2.093126,-1.161156 1.519165,-0.437731 0.886817,1.182423 m 23.057254,0.886818 c 2.14928,-0.285537 5.61036,2.623464 4.13849,5.912117 1.79459,0.217193 6.38645,1.308884 2.36484,4.729693 -3.0478,0.735691 -1.83797,3.506906 -0.38692,3.044716 0.23648,0.298044 0.3626,1.293635 0.97813,1.093766 m -7.68575,-17.440745 c 2.15271,0.01081 2.25108,5.852284 0.29561,7.09454 -1.27035,1.748692 -3.13768,3.411503 -4.43409,3.842877 l 0,0.295605 0.29561,0.295606 m 0,-13.893475 c 1.01076,-0.07196 2.32578,-0.08532 3.59213,2.688964 -1.00793,2.0542 -1.46335,4.613932 -3.29653,5.292394 -2.055883,0.198567 -0.52446,3.675561 -3.547269,3.251665 M 101.0972,72.121172 c 4.17262,1.485232 -1.866278,5.341417 -2.069237,7.390146 -1.934358,0.0438 -1.800822,1.93078 -2.069241,3.251665 m -36.950733,7.390146 c -2.714042,1.238199 -4.879622,1.599626 -7.09454,2.956059 -1.636789,-0.06676 -8.96593,1.908266 -5.320906,-1.182424 0.992368,-0.09005 6.931504,-2.293084 5.126912,-2.281706 -1.265477,0.607816 -7.651681,2.437434 -5.718123,-0.378746 1.469059,-2.199242 6.373177,-0.930293 6.503328,-4.434088 1.934886,-2.471066 -5.454833,-0.352424 -6.503328,0 -5.168338,0.679851 -1.184037,-4.628731 1.773635,-3.842876 1.614738,0.01855 -1.611729,-3.542362 2.602657,-4.682977 -0.865474,2.284925 -1.076172,-4.345564 -3.193869,-3.889593 0.93653,-2.536852 3.377787,-4.695387 5.616511,-4.729694 6.602348,-1.066107 -5.912575,-2.788162 -8.659376,-3.844188 0.114161,0.890358 4.616555,0.534689 0.973624,0.0013 3.020261,-0.817969 7.318939,0.240041 10.050599,-0.591212 -1.458811,-1.294722 -0.202705,-2.84901 1.478029,-3.54727 2.01494,-0.266424 5.346088,-2.089474 7.685753,-0.591212 0.212281,1.38066 4.537426,2.197197 1.478029,0.591212 -1.60477,-0.177704 -3.392196,-4.723653 -0.617108,-2.75227 1.506477,-0.05519 7.437047,3.752107 4.459984,0.387423 -1.665151,-0.413929 -4.138908,-1.689446 -1.478029,-2.660453 3.550612,-2.299582 3.952518,3.521312 4.138482,3.54727 2.013854,-0.512344 2.791128,-3.313309 5.616511,-2.364846 0.320334,4.183779 0.850272,4.86696 4.138482,2.660452 0.999974,-0.568602 0.645267,3.905723 4.044666,2.660453 0.349408,2.641827 4.760277,1.296364 5.119116,3.842876 3.728342,0.249912 -0.785049,3.594622 3.251664,2.956059 2.898146,-3.613108 4.950548,3.606399 4.682978,4.196278 -1.111951,2.031999 -3.079153,3.01999 -3.204948,5.263109 -0.02343,1.109124 -0.685,4.581186 -1.47803,3.547271 m -35.768309,2.364846 c 2.936246,1.534671 6.788737,-2.171828 5.0253,1.47803 -1.571079,0.490494 -2.102394,1.678288 -2.364847,3.842876 -0.2787,-0.67284 -1.427311,0.951541 -0.591211,0 M 57.938748,73.599201 c 1.360804,-2.35313 2.934566,-4.261313 4.860907,-5.584807 1.109035,-0.961304 3.775771,-2.635906 6.029601,-2.987763 3.133859,0.176753 5.305976,-1.571871 8.323873,-1.478029 3.123517,-0.142316 5.545926,0.942565 7.981358,1.773635 1.235472,0.120993 3.723966,1.944569 4.631726,1.984854 1.206907,0.924088 3.990636,2.869059 3.645238,2.74484 1.599822,2.108972 1.211743,5.013452 0.591212,7.685752 0.130446,1.358718 -0.431156,1.787449 -2.364847,3.842876 -1.424231,1.410099 -1.916397,3.643795 -0.295606,5.0253 0.297267,2.855206 -3.848849,2.222452 -1.478029,4.138482 0.32194,1.300812 4.601399,0.155767 3.842876,-1.773635 1.805329,-3.247225 2.750697,0.104323 3.251665,1.182423 0.670248,2.277114 2.274712,1.927241 2.956058,4.138482 1.60891,2.004389 0.57159,3.424425 2.36485,1.478029 0.52299,-1.663124 0.94215,-1.437145 2.39655,-2.824845 0.15792,-2.054692 2.9752,-2.57538 4.05986,-2.49606 -0.12991,0.675469 -2.43132,2.218379 -2.61354,3.842876 -0.62961,1.07774 0.38098,2.988492 1e-5,4.43409 0.0871,-0.417466 0.91558,0.865051 0.2956,0.295604 M 53.50466,76.259654 c 0.628628,-3.361798 4.366942,-1.648548 6.503329,-1.478029 2.284844,1.071952 3.56439,-0.366138 4.729694,-0.886818 1.623549,-0.585493 5.028074,-2.51626 7.981358,-1.478029 1.372914,0.900472 2.996808,2.091056 4.434088,2.956058 2.250916,-0.09835 -0.874703,0.220833 1.773635,0.295606 M 53.50466,117.94008 c 1.698458,0.27083 0.81865,0.54388 2.660453,1.18242 1.641562,2.05639 2.926917,2.86826 5.616512,3.84288 3.221727,2.21622 4.170161,-0.0485 6.798934,0.29561 0.565451,-2.59612 0.115456,-5.7061 1.182424,-8.27697 -0.365192,-3.85024 1.430506,-4.06196 1.773635,-7.68575 2.10962,-2.76018 -0.532824,-1.5474 -2.956059,-1.47803 -2.474344,2.63628 -4.457371,-0.0254 -5.912117,-1.18242 -0.715446,-2.94278 0.357463,-6.011812 -0.295606,-9.02306 0.239211,-2.672515 -0.932173,-5.624558 -2.970046,-7.974297 -0.521151,-0.932604 -0.931041,-3.428772 -0.281618,-4.87748 0.02221,-3.552135 -0.517274,-3.703471 -3.547271,-4.729694 -1.21641,-0.461408 -1.403151,-0.607062 -2.069241,-2.069241 M 33.994674,130.65113 c -0.146665,4.0736 -2.923337,5.83666 -6.859999,5.0253 -1.513289,-0.59574 -4.270723,0.25833 -5.555447,-0.88682 0.445007,-1.45843 1.661964,-1.96799 2.660452,-2.95605 1.562243,-1.32635 4.22966,-3.03304 5.0253,-4.7297 2.553523,-0.41191 5.012393,-1.86721 7.390146,-2.66045 1.145582,-1.59807 2.605886,-4.33494 6.207724,-3.25167 2.401809,-1.14215 6.136263,-0.54711 8.24526,-1.90484 0.05589,0.37335 0.926029,-1.40995 0.918521,-1.34682 m 67.693739,-11.23303 c 0.15333,4.66183 -4.00887,9.16961 -8.81793,8.52537"
       style="fill:none;stroke:#000000;stroke-width:1px;stroke-linecap:butt;stroke-linejoin:miter;stroke-opacity:1;filter:url(#filter10369)" />
    <text
       transform="translate(-1,-2)"
       sodipodi:linespacing="125%"
       id="text61871"
       style="font-size:17.31587791px;font-style:normal;font-variant:normal;font-weight:normal;font-stretch:normal;line-height:125%;letter-spacing:0px;word-spacing:0px;fill:#000000;fill-opacity:1;stroke:none;filter:url(#filter6179);font-family:eufm10;-inkscape-font-specification:eufm10"
       xml:space="preserve"><textPath
         id="textPath5951"
         xlink:href="#path5949"><tspan
   id="tspan61873"><tspan
     style="font-size:40px"
     id="tspan61932"><tspan
       style="font-size:30px"
       id="tspan61934"><tspan
         style="font-size:25px"
         id="tspan61936">swKnights </tspan></tspan></tspan></tspan></textPath></text>
    <text
       sodipodi:linespacing="125%"
       id="text61871-9"
       style="font-size:17.31587791px;font-style:normal;font-variant:normal;font-weight:normal;font-stretch:normal;line-height:125%;letter-spacing:0px;word-spacing:0px;fill:#000000;fill-opacity:1;stroke:none;filter:url(#filter6165);font-family:eufm10;-inkscape-font-specification:eufm10"
       xml:space="preserve"><textPath
         id="textPath5962"
         xlink:href="#path3892"><tspan
   id="tspan61873-0">Novissima Autem Inimica Destruetur Mors </tspan></textPath></text>
    <path
       transform="translate(0,13)"
       sodipodi:end="5.3232542"
       sodipodi:start="4.1887902"
       d="M 61.947792,23.637882 C 96.330566,4.6270065 139.10045,6.415358 171.62227,28.223737 l -58.59545,80.141773 z"
       sodipodi:ry="97.835037"
       sodipodi:rx="102.15805"
       sodipodi:cy="108.36551"
       sodipodi:cx="113.02682"
       id="path5949"
       style="fill:#000000;fill-opacity:0;stroke:none"
       sodipodi:type="arc" />
  </g>
</svg>
